<svg width="12" height="12" viewBox="0 0 12 12" fill="none" xmlns="http://www.w3.org/2000/svg">
<path d="M8.4999 7.00001H6.3294C6.09351 7.66722 5.62934 8.22956 5.01892 8.58764C4.40851 8.94571 3.69117 9.07647 2.99367 8.9568C2.29618 8.83713 1.66344 8.47473 1.2073 7.93367C0.751156 7.3926 0.500977 6.70769 0.500977 6.00001C0.500977 5.29232 0.751156 4.60741 1.2073 4.06635C1.66344 3.52528 2.29618 3.16288 2.99367 3.04321C3.69117 2.92354 4.40851 3.0543 5.01892 3.41237C5.62934 3.77045 6.09351 4.33279 6.3294 5.00001H11.4999V7.00001H10.4999V9.00001H8.4999V7.00001ZM3.4999 7.00001C3.76512 7.00001 4.01947 6.89465 4.20701 6.70711C4.39455 6.51958 4.4999 6.26522 4.4999 6.00001C4.4999 5.73479 4.39455 5.48044 4.20701 5.2929C4.01947 5.10536 3.76512 5.00001 3.4999 5.00001C3.23469 5.00001 2.98033 5.10536 2.7928 5.2929C2.60526 5.48044 2.4999 5.73479 2.4999 6.00001C2.4999 6.26522 2.60526 6.51958 2.7928 6.70711C2.98033 6.89465 3.23469 7.00001 3.4999 7.00001V7.00001Z" fill="#4F4F4F"/>
</svg>
