<svg width="12" height="13" viewBox="0 0 12 13" fill="none" xmlns="http://www.w3.org/2000/svg">
<path d="M1.1215 3.71264L5.745 0.709639C5.82271 0.659128 5.91163 0.632446 6.00225 0.632446C6.09287 0.632446 6.18179 0.659128 6.2595 0.709639L10.8785 3.71318C10.9156 3.73724 10.9462 3.77129 10.9675 3.81202C10.9888 3.85274 11 3.89875 11 3.94556V10.8334C11 10.977 10.9473 11.1148 10.8536 11.2164C10.7598 11.318 10.6326 11.3751 10.5 11.3751H1.5C1.36739 11.3751 1.24021 11.318 1.14645 11.2164C1.05268 11.1148 1 10.977 1 10.8334V3.94501C0.999991 3.89821 1.01118 3.8522 1.03247 3.81147C1.05377 3.77075 1.08444 3.7367 1.1215 3.71264ZM2 4.40543V10.2917H10V4.40489L6.002 1.80489L2 4.40489V4.40543ZM6.03 7.41981L8.678 5.00235L9.322 5.8311L6.037 8.83031L2.682 5.83489L3.318 4.99856L6.03 7.41981V7.41981Z" fill="#03053D"/>
</svg>
