<svg width="13" height="14" viewBox="0 0 13 14" fill="none" xmlns="http://www.w3.org/2000/svg">
<path d="M0.705715 3.857C1.25756 2.69727 2.10412 1.72236 3.1508 1.04123C4.19747 0.360099 5.403 -0.000408498 6.63265 3.47362e-07C8.42015 3.47362e-07 9.92179 0.693 11.0699 1.8235L9.16832 3.8311C8.48051 3.1374 7.60633 2.7839 6.63265 2.7839C4.90485 2.7839 3.44235 4.0159 2.92168 5.67C2.78903 6.09 2.71342 6.538 2.71342 7C2.71342 7.462 2.78903 7.91 2.92168 8.33C3.44301 9.9848 4.90485 11.2161 6.63265 11.2161C7.52475 11.2161 8.28418 10.9676 8.87847 10.5476C9.22299 10.3082 9.51794 9.99756 9.74549 9.63445C9.97304 9.27134 10.1285 8.8633 10.2023 8.435H6.63265V5.7274H12.8793C12.9576 6.1852 13 6.6626 13 7.1589C13 9.2911 12.277 11.0859 11.0221 12.3039C9.9251 13.3735 8.42347 14 6.63265 14C5.76154 14.0004 4.8989 13.8196 4.09403 13.4679C3.28917 13.1163 2.55785 12.6007 1.94188 11.9506C1.32591 11.3005 0.83737 10.5287 0.504171 9.67922C0.170973 8.82977 -0.000348122 7.91936 5.31086e-07 7C5.31086e-07 5.8702 0.256021 4.802 0.705715 3.857Z" fill="#03053D"/>
</svg>
